<?xml version="1.0" encoding="utf-8"?>
<!-- Generator: Adobe Illustrator 16.0.0, SVG Export Plug-In . SVG Version: 6.00 Build 0)  -->
<!DOCTYPE svg PUBLIC "-//W3C//DTD SVG 1.1//EN" "http://www.w3.org/Graphics/SVG/1.1/DTD/svg11.dtd">
<svg version="1.1" id="Capa_1" xmlns="http://www.w3.org/2000/svg" xmlns:xlink="http://www.w3.org/1999/xlink" x="0px" y="0px"
	 width="125px" height="34px" viewBox="0 0 125 34" enable-background="new 0 0 125 34" xml:space="preserve">
<path fill="#10508C" d="M18.18,13.765c-0.242-0.209-0.363-0.512-0.363-0.905c0-0.396,0.119-0.701,0.361-0.911
	c0.24-0.212,0.605-0.318,1.096-0.318c0.486,0,0.848,0.105,1.089,0.318c0.24,0.21,0.361,0.514,0.361,0.911
	c0,0.393-0.121,0.696-0.361,0.905c-0.241,0.212-0.603,0.317-1.089,0.317C18.788,14.082,18.424,13.978,18.18,13.765 M18.095,15.253
	h2.354v8.051h-2.354V15.253z"/>
<path fill="#10508C" d="M15.689,15.892c0.48,0.511,0.721,1.313,0.721,2.407v5.003h-2.348v-4.878c0-0.456-0.092-0.781-0.275-0.977
	c-0.184-0.198-0.44-0.296-0.768-0.296c-0.237,0-0.464,0.045-0.686,0.137c-0.22,0.091-0.409,0.229-0.567,0.416
	c0.016,0.162,0.023,0.335,0.023,0.521v5.077H9.487v-4.878c0-0.461-0.086-0.788-0.257-0.981c-0.172-0.195-0.423-0.292-0.751-0.292
	c-0.25,0-0.494,0.056-0.731,0.169c-0.239,0.114-0.434,0.281-0.586,0.501v5.481H4.807v-8.049h1.936l0.162,0.817h0.11
	c0.572-0.627,1.326-0.943,2.259-0.943c0.445,0,0.844,0.085,1.195,0.255s0.634,0.433,0.851,0.791
	c0.333-0.358,0.708-0.621,1.126-0.791c0.416-0.17,0.846-0.255,1.287-0.255C14.557,15.126,15.209,15.384,15.689,15.892"/>
<path fill-rule="evenodd" clip-rule="evenodd" fill="#3FA6D1" d="M116.226,9.726c-0.987-0.77-2.079-1.371-3.259-1.792
	c-1.29-0.46-2.649-0.65-4.014-0.65c-0.948,0-1.896,0.12-2.793,0.419c-0.797,0.266-1.533,0.657-2.172,1.204
	c-0.603,0.518-1.067,1.133-1.406,1.854c-0.356,0.759-0.501,1.578-0.501,2.412v0.057c0,0.816,0.108,1.682,0.457,2.428
	c0.302,0.638,0.729,1.181,1.285,1.614c0.615,0.481,1.323,0.839,2.051,1.11c0.899,0.334,1.821,0.602,2.75,0.834
	c0.698,0.17,1.403,0.362,2.078,0.608c0.43,0.157,0.893,0.348,1.276,0.593c0.27,0.177,0.535,0.405,0.677,0.698
	c0.124,0.267,0.177,0.557,0.177,0.848v0.058c0,0.667-0.293,1.191-0.849,1.556c-0.646,0.428-1.496,0.534-2.252,0.534
	c-1.135,0-2.233-0.209-3.265-0.68c-0.88-0.397-2.014-0.801-2.993-0.671c-0.644,0.083-1.132,0.383-1.544,0.874
	c-0.239,0.286-0.432,0.609-0.607,0.938c1.139,1.007,2.428,1.787,3.86,2.301c1.441,0.512,2.933,0.777,4.461,0.777
	c0.993,0,1.989-0.112,2.941-0.409c0.824-0.252,1.599-0.633,2.271-1.175c0.638-0.516,1.125-1.15,1.475-1.892
	c0.388-0.831,0.53-1.731,0.53-2.643c0-0.745-0.104-1.515-0.404-2.203c-0.271-0.618-0.674-1.146-1.188-1.587
	c-0.579-0.499-1.263-0.882-1.966-1.179c-0.874-0.369-1.784-0.655-2.697-0.899c-0.722-0.191-1.443-0.39-2.159-0.607
	c-0.462-0.144-0.958-0.317-1.377-0.567c-0.302-0.174-0.587-0.409-0.75-0.723c-0.152-0.289-0.208-0.613-0.208-0.941V12.77
	c0-0.585,0.263-1.049,0.723-1.404c0.564-0.441,1.366-0.546,2.061-0.546c0.922,0,1.814,0.2,2.666,0.549
	c1.106,0.455,2.756,0.969,3.763,0.024C115.779,10.964,116.04,10.318,116.226,9.726"/>
<path fill-rule="evenodd" clip-rule="evenodd" fill="#3FA6D1" d="M39.385,11.195c-0.188-0.446-0.373-0.894-0.564-1.343
	c-0.141-0.325-0.281-0.657-0.441-0.979c-0.194-0.387-0.436-0.817-0.806-1.07c-0.364-0.245-0.841-0.313-1.27-0.342
	c-0.349-0.028-0.706-0.031-1.056-0.037c-0.435-0.001-0.87,0-1.307,0l-8.482,19.938c0.439,0,0.874,0,1.314-0.004
	c0.392-0.009,0.787-0.015,1.179-0.047c0.484-0.046,1.016-0.125,1.419-0.414c0.415-0.295,0.682-0.807,0.889-1.259
	c0.177-0.37,0.331-0.756,0.484-1.136c0.207-0.515,0.409-1.034,0.619-1.546l0.05-0.121h8.785l1.844,4.526h4.224L39.385,11.195z
	 M32.84,19.3l2.964-7.234l2.963,7.234H32.84z"/>
<path fill-rule="evenodd" clip-rule="evenodd" fill="#3FA6D1" d="M47.857,7.57v19.791c1.061-0.011,2.483-0.112,3.244-0.895
	c0.655-0.678,0.753-1.779,0.753-2.674v-9.628l10.057,13.199h3.491V7.57c-0.675,0-1.393-0.005-2.056,0.08
	c-0.434,0.058-0.916,0.163-1.259,0.464c-0.287,0.255-0.433,0.617-0.521,0.986c-0.146,0.598-0.164,1.29-0.164,1.9v9.364L51.666,7.57
	H47.857z"/>
<path fill-rule="evenodd" clip-rule="evenodd" fill="#3FA6D1" d="M82.191,9.726c-0.988-0.77-2.078-1.371-3.26-1.792
	c-1.29-0.46-2.648-0.65-4.014-0.65c-0.945,0-1.894,0.12-2.793,0.419c-0.796,0.266-1.531,0.657-2.17,1.204
	c-0.6,0.516-1.073,1.135-1.406,1.854c-0.354,0.759-0.502,1.578-0.502,2.412v0.057c0,0.816,0.105,1.682,0.457,2.428
	c0.301,0.638,0.73,1.181,1.286,1.614c0.615,0.481,1.324,0.839,2.053,1.11c0.896,0.334,1.819,0.602,2.746,0.834
	c0.696,0.17,1.405,0.362,2.08,0.608c0.428,0.157,0.892,0.348,1.278,0.593c0.269,0.177,0.533,0.405,0.672,0.698
	c0.126,0.267,0.181,0.557,0.181,0.848v0.058c0,0.667-0.295,1.191-0.851,1.556c-0.648,0.428-1.496,0.534-2.253,0.534
	c-1.133,0-2.233-0.209-3.264-0.68c-0.877-0.397-2.013-0.801-2.996-0.671c-0.64,0.083-1.13,0.383-1.541,0.874
	c-0.238,0.286-0.431,0.609-0.607,0.938c1.141,1.007,2.428,1.787,3.862,2.301c1.439,0.512,2.931,0.777,4.459,0.777
	c0.992,0,1.989-0.112,2.942-0.409c0.822-0.252,1.597-0.633,2.27-1.175c0.639-0.516,1.125-1.15,1.475-1.892
	c0.384-0.811,0.532-1.695,0.532-2.588v-0.055c0-0.745-0.103-1.515-0.404-2.203c-0.27-0.618-0.677-1.146-1.188-1.587
	c-0.581-0.499-1.262-0.882-1.967-1.179c-0.872-0.369-1.783-0.655-2.7-0.899c-0.72-0.191-1.44-0.39-2.15-0.607
	c-0.464-0.144-0.965-0.317-1.384-0.567c-0.301-0.174-0.586-0.409-0.75-0.723c-0.151-0.289-0.21-0.613-0.21-0.941V12.77
	c0-0.585,0.268-1.049,0.722-1.404c0.568-0.441,1.369-0.546,2.065-0.546c0.923,0,1.814,0.2,2.667,0.549
	c1.106,0.455,2.754,0.969,3.763,0.024C81.744,10.964,82.006,10.318,82.191,9.726"/>
<path fill-rule="evenodd" clip-rule="evenodd" fill="#3FA6D1" d="M85.067,7.57v19.793h14.982c0.003-0.833,0.011-1.976-0.442-2.645
	c-0.563-0.825-1.797-0.924-2.702-0.924h-7.808v-4.616h9.513c0.003-0.428,0.016-0.859-0.011-1.281
	c-0.022-0.397-0.082-0.815-0.273-1.167c-0.558-1.033-2.134-1.12-3.153-1.12h-6.075v-4.473h7.871c0.757,0,1.879-0.047,2.415-0.678
	c0.271-0.319,0.379-0.756,0.438-1.162c0.079-0.56,0.082-1.157,0.082-1.728H85.067z"/>
</svg>
